<?xml version="1.0" standalone="no"?>
<!DOCTYPE svg PUBLIC "-//W3C//DTD SVG 20010904//EN"
 "http://www.w3.org/TR/2001/REC-SVG-20010904/DTD/svg10.dtd">
<svg version="1.0" xmlns="http://www.w3.org/2000/svg"
 width="700.000000pt" height="700.000000pt" viewBox="0 0 700.000000 700.000000"
 preserveAspectRatio="xMidYMid meet">
<metadata>
Created by potrace 1.14, written by Peter Selinger 2001-2017
</metadata>
<g transform="translate(0.000000,700.000000) scale(0.100000,-0.100000)"
fill="#000000" stroke="none">
<path d="M3138 5712 c-966 -968 -997 -999 -1032 -1072 -68 -143 -65 -39 -63
-1743 l2 -1542 28 -78 c72 -205 225 -342 430 -386 76 -16 182 -17 1442 -16
748 1 1382 5 1409 10 167 27 338 154 413 307 17 35 185 423 373 863 188 440
350 818 360 840 99 224 182 432 194 485 12 51 15 137 15 410 0 190 -4 368 -10
395 -31 163 -136 316 -275 397 -150 88 -119 85 -1197 84 l-938 -1 6 45 c3 25
12 72 20 105 8 33 17 71 19 85 3 14 10 50 16 80 6 30 14 66 16 80 3 14 34 165
70 335 60 289 68 327 78 380 3 11 14 63 26 115 12 52 23 137 25 188 6 170 -29
232 -267 469 l-164 163 -996 -998z m726 -177 c-13 -49 -26 -99 -28 -110 -2
-11 -36 -148 -76 -305 -39 -157 -73 -292 -75 -300 -2 -8 -11 -44 -20 -80 -9
-36 -18 -72 -20 -80 -2 -8 -33 -130 -68 -270 -36 -140 -67 -266 -68 -280 l-4
-25 1300 -1 c716 0 1305 -3 1311 -6 6 -4 9 -117 9 -295 l-1 -288 -433 -1010
c-238 -555 -436 -1014 -441 -1018 -5 -6 -1730 -11 -2545 -7 l-80 0 0 1457 0
1457 629 628 c345 346 630 628 631 626 2 -2 -8 -43 -21 -93z"/>
<path d="M294 4365 c-2 -5 -3 -793 -2 -1750 l3 -1740 582 0 581 0 -1 1750 -2
1750 -579 0 c-377 0 -580 -3 -582 -10z"/>
</g>
</svg>
